G04 MADE WITH FRITZING*
G04 WWW.FRITZING.ORG*
G04 DOUBLE SIDED*
G04 HOLES PLATED*
G04 CONTOUR ON CENTER OF CONTOUR VECTOR*
%ASAXBY*%
%FSLAX23Y23*%
%MOIN*%
%OFA0B0*%
%SFA1.0B1.0*%
%ADD10C,0.049370*%
%ADD11C,0.025748*%
%ADD12C,0.089370*%
%ADD13C,0.090000*%
%ADD14C,0.100551*%
%ADD15C,0.088000*%
%ADD16C,0.085000*%
%ADD17C,0.078000*%
%ADD18R,0.089370X0.089370*%
%ADD19R,0.129522X0.280594*%
%ADD20R,0.215594X0.076929*%
%ADD21R,0.061181X0.151823*%
%ADD22R,0.078000X0.078000*%
%ADD23R,0.001000X0.001000*%
%LNMASK0*%
G90*
G70*
G54D10*
X1800Y1062D03*
G54D11*
X1825Y1190D03*
G54D10*
X1655Y1106D03*
X1630Y981D03*
X1629Y862D03*
X1630Y756D03*
X1730Y706D03*
X1745Y502D03*
X1367Y372D03*
X1441Y372D03*
X1130Y481D03*
X1230Y481D03*
X1680Y482D03*
X1872Y853D03*
G54D11*
X1866Y1190D03*
G54D10*
X1533Y308D03*
X1533Y394D03*
G54D11*
X1865Y1282D03*
G54D10*
X1755Y981D03*
X1756Y864D03*
X1805Y531D03*
X1954Y356D03*
X1380Y1056D03*
X1380Y957D03*
X629Y406D03*
X1221Y399D03*
X904Y318D03*
X754Y431D03*
X1180Y856D03*
G54D12*
X980Y1456D03*
X1280Y1456D03*
X980Y1356D03*
X1280Y1356D03*
X980Y1256D03*
X1280Y1256D03*
X980Y1156D03*
X1280Y1156D03*
X980Y1056D03*
X1280Y1056D03*
X980Y956D03*
X1280Y956D03*
X980Y856D03*
X1280Y856D03*
X980Y756D03*
X1280Y756D03*
X980Y656D03*
X1280Y656D03*
X980Y556D03*
X1280Y556D03*
G54D13*
X2090Y1006D03*
X1980Y1006D03*
G54D14*
X1125Y1558D03*
X1326Y1653D03*
X1127Y1753D03*
G54D15*
X2080Y1506D03*
X1980Y1506D03*
X2080Y606D03*
X1980Y606D03*
G54D16*
X335Y629D03*
X79Y629D03*
X335Y806D03*
X79Y806D03*
X335Y1029D03*
X79Y1029D03*
X335Y1206D03*
X79Y1206D03*
G54D17*
X682Y1298D03*
X682Y1219D03*
X682Y1140D03*
X682Y1061D03*
X682Y982D03*
X682Y903D03*
X682Y824D03*
X682Y745D03*
X682Y666D03*
X682Y587D03*
X1552Y587D03*
X1552Y666D03*
X1552Y745D03*
X1552Y824D03*
X1552Y903D03*
X1552Y982D03*
X1552Y1061D03*
X1552Y1140D03*
X1552Y1219D03*
X1552Y1298D03*
G54D15*
X2080Y1656D03*
X1980Y1656D03*
X1880Y1656D03*
X1780Y1656D03*
X1680Y1656D03*
X1580Y1656D03*
X430Y2106D03*
X430Y2006D03*
X430Y1906D03*
X430Y1806D03*
G54D16*
X2130Y806D03*
X2030Y806D03*
X1930Y806D03*
G54D15*
X1980Y1356D03*
X2080Y1356D03*
X1980Y1156D03*
X2080Y1156D03*
G54D10*
X679Y1857D03*
G54D11*
X1864Y1356D03*
G54D10*
X905Y1107D03*
G54D18*
X980Y1456D03*
G54D19*
X1650Y143D03*
G54D20*
X1724Y206D03*
G54D19*
X246Y149D03*
X1808Y145D03*
X1494Y143D03*
X1338Y146D03*
X1182Y147D03*
X1026Y143D03*
X870Y146D03*
X715Y145D03*
X559Y146D03*
X401Y145D03*
G54D21*
X1490Y157D03*
X406Y157D03*
X1962Y146D03*
X1015Y154D03*
X1185Y154D03*
X1662Y154D03*
X1336Y154D03*
X555Y154D03*
X1806Y154D03*
X864Y154D03*
X706Y154D03*
X224Y166D03*
G54D19*
X1962Y142D03*
G54D22*
X682Y1298D03*
G54D23*
X1124Y1795D02*
X1124Y1795D01*
X1116Y1794D02*
X1132Y1794D01*
X1112Y1793D02*
X1136Y1793D01*
X1109Y1792D02*
X1139Y1792D01*
X1107Y1791D02*
X1141Y1791D01*
X1105Y1790D02*
X1143Y1790D01*
X1104Y1789D02*
X1145Y1789D01*
X1102Y1788D02*
X1146Y1788D01*
X1101Y1787D02*
X1147Y1787D01*
X1099Y1786D02*
X1149Y1786D01*
X1098Y1785D02*
X1150Y1785D01*
X1097Y1784D02*
X1151Y1784D01*
X1096Y1783D02*
X1152Y1783D01*
X1095Y1782D02*
X1153Y1782D01*
X1094Y1781D02*
X1154Y1781D01*
X1093Y1780D02*
X1155Y1780D01*
X1093Y1779D02*
X1155Y1779D01*
X1092Y1778D02*
X1156Y1778D01*
X1091Y1777D02*
X1157Y1777D01*
X1091Y1776D02*
X1158Y1776D01*
X1090Y1775D02*
X1158Y1775D01*
X1089Y1774D02*
X1159Y1774D01*
X1089Y1773D02*
X1159Y1773D01*
X1088Y1772D02*
X1160Y1772D01*
X1088Y1771D02*
X1160Y1771D01*
X1088Y1770D02*
X1161Y1770D01*
X1087Y1769D02*
X1161Y1769D01*
X1087Y1768D02*
X1161Y1768D01*
X1086Y1767D02*
X1162Y1767D01*
X1086Y1766D02*
X1162Y1766D01*
X1086Y1765D02*
X1162Y1765D01*
X1086Y1764D02*
X1162Y1764D01*
X1085Y1763D02*
X1163Y1763D01*
X1085Y1762D02*
X1163Y1762D01*
X1085Y1761D02*
X1163Y1761D01*
X1085Y1760D02*
X1163Y1760D01*
X1085Y1759D02*
X1163Y1759D01*
X1085Y1758D02*
X1163Y1758D01*
X1085Y1757D02*
X1163Y1757D01*
X1085Y1756D02*
X1164Y1756D01*
X1085Y1755D02*
X1164Y1755D01*
X1085Y1754D02*
X1163Y1754D01*
X1085Y1753D02*
X1163Y1753D01*
X1085Y1752D02*
X1163Y1752D01*
X1085Y1751D02*
X1163Y1751D01*
X1085Y1750D02*
X1163Y1750D01*
X1085Y1749D02*
X1163Y1749D01*
X1085Y1748D02*
X1163Y1748D01*
X1085Y1747D02*
X1163Y1747D01*
X1086Y1746D02*
X1162Y1746D01*
X1086Y1745D02*
X1162Y1745D01*
X1086Y1744D02*
X1162Y1744D01*
X1086Y1743D02*
X1162Y1743D01*
X1087Y1742D02*
X1161Y1742D01*
X1087Y1741D02*
X1161Y1741D01*
X1088Y1740D02*
X1161Y1740D01*
X1088Y1739D02*
X1160Y1739D01*
X1088Y1738D02*
X1160Y1738D01*
X1089Y1737D02*
X1159Y1737D01*
X1089Y1736D02*
X1159Y1736D01*
X1090Y1735D02*
X1158Y1735D01*
X1091Y1734D02*
X1157Y1734D01*
X1091Y1733D02*
X1157Y1733D01*
X1092Y1732D02*
X1156Y1732D01*
X1093Y1731D02*
X1155Y1731D01*
X1093Y1730D02*
X1155Y1730D01*
X1094Y1729D02*
X1154Y1729D01*
X1095Y1728D02*
X1153Y1728D01*
X1096Y1727D02*
X1152Y1727D01*
X1097Y1726D02*
X1151Y1726D01*
X1098Y1725D02*
X1150Y1725D01*
X1099Y1724D02*
X1149Y1724D01*
X1101Y1723D02*
X1147Y1723D01*
X1102Y1722D02*
X1146Y1722D01*
X1104Y1721D02*
X1144Y1721D01*
X1105Y1720D02*
X1143Y1720D01*
X1107Y1719D02*
X1141Y1719D01*
X1110Y1718D02*
X1139Y1718D01*
X1112Y1717D02*
X1136Y1717D01*
X1116Y1716D02*
X1132Y1716D01*
X1323Y1695D02*
X1325Y1695D01*
X1316Y1694D02*
X1332Y1694D01*
X1312Y1693D02*
X1336Y1693D01*
X1309Y1692D02*
X1339Y1692D01*
X1307Y1691D02*
X1341Y1691D01*
X1305Y1690D02*
X1343Y1690D01*
X1304Y1689D02*
X1345Y1689D01*
X1302Y1688D02*
X1346Y1688D01*
X1301Y1687D02*
X1347Y1687D01*
X1299Y1686D02*
X1349Y1686D01*
X1298Y1685D02*
X1350Y1685D01*
X1297Y1684D02*
X1351Y1684D01*
X1296Y1683D02*
X1352Y1683D01*
X1295Y1682D02*
X1353Y1682D01*
X1294Y1681D02*
X1354Y1681D01*
X1293Y1680D02*
X1355Y1680D01*
X1293Y1679D02*
X1355Y1679D01*
X1292Y1678D02*
X1356Y1678D01*
X1291Y1677D02*
X1357Y1677D01*
X1291Y1676D02*
X1357Y1676D01*
X1290Y1675D02*
X1358Y1675D01*
X1289Y1674D02*
X1359Y1674D01*
X1289Y1673D02*
X1359Y1673D01*
X1288Y1672D02*
X1360Y1672D01*
X1288Y1671D02*
X1360Y1671D01*
X1287Y1670D02*
X1361Y1670D01*
X1287Y1669D02*
X1361Y1669D01*
X1287Y1668D02*
X1361Y1668D01*
X1286Y1667D02*
X1362Y1667D01*
X1286Y1666D02*
X1362Y1666D01*
X1286Y1665D02*
X1362Y1665D01*
X1286Y1664D02*
X1362Y1664D01*
X1285Y1663D02*
X1363Y1663D01*
X1285Y1662D02*
X1363Y1662D01*
X1285Y1661D02*
X1363Y1661D01*
X1285Y1660D02*
X1363Y1660D01*
X1285Y1659D02*
X1363Y1659D01*
X1285Y1658D02*
X1363Y1658D01*
X1285Y1657D02*
X1363Y1657D01*
X1285Y1656D02*
X1363Y1656D01*
X1285Y1655D02*
X1363Y1655D01*
X1285Y1654D02*
X1363Y1654D01*
X1285Y1653D02*
X1363Y1653D01*
X1285Y1652D02*
X1363Y1652D01*
X1285Y1651D02*
X1363Y1651D01*
X1285Y1650D02*
X1363Y1650D01*
X1285Y1649D02*
X1363Y1649D01*
X1285Y1648D02*
X1363Y1648D01*
X1285Y1647D02*
X1363Y1647D01*
X1286Y1646D02*
X1362Y1646D01*
X1286Y1645D02*
X1362Y1645D01*
X1286Y1644D02*
X1362Y1644D01*
X1286Y1643D02*
X1362Y1643D01*
X1287Y1642D02*
X1361Y1642D01*
X1287Y1641D02*
X1361Y1641D01*
X1288Y1640D02*
X1361Y1640D01*
X1288Y1639D02*
X1360Y1639D01*
X1288Y1638D02*
X1360Y1638D01*
X1289Y1637D02*
X1359Y1637D01*
X1289Y1636D02*
X1359Y1636D01*
X1290Y1635D02*
X1358Y1635D01*
X1291Y1634D02*
X1357Y1634D01*
X1291Y1633D02*
X1357Y1633D01*
X1292Y1632D02*
X1356Y1632D01*
X1293Y1631D02*
X1355Y1631D01*
X1293Y1630D02*
X1355Y1630D01*
X1294Y1629D02*
X1354Y1629D01*
X1295Y1628D02*
X1353Y1628D01*
X1296Y1627D02*
X1352Y1627D01*
X1297Y1626D02*
X1351Y1626D01*
X1298Y1625D02*
X1350Y1625D01*
X1299Y1624D02*
X1349Y1624D01*
X1301Y1623D02*
X1347Y1623D01*
X1302Y1622D02*
X1346Y1622D01*
X1304Y1621D02*
X1344Y1621D01*
X1305Y1620D02*
X1343Y1620D01*
X1307Y1619D02*
X1341Y1619D01*
X1310Y1618D02*
X1338Y1618D01*
X1312Y1617D02*
X1336Y1617D01*
X1316Y1616D02*
X1332Y1616D01*
X1123Y1595D02*
X1125Y1595D01*
X1116Y1594D02*
X1133Y1594D01*
X1112Y1593D02*
X1136Y1593D01*
X1109Y1592D02*
X1139Y1592D01*
X1107Y1591D02*
X1141Y1591D01*
X1105Y1590D02*
X1143Y1590D01*
X1104Y1589D02*
X1145Y1589D01*
X1102Y1588D02*
X1146Y1588D01*
X1101Y1587D02*
X1148Y1587D01*
X1099Y1586D02*
X1149Y1586D01*
X1098Y1585D02*
X1150Y1585D01*
X1097Y1584D02*
X1151Y1584D01*
X1096Y1583D02*
X1152Y1583D01*
X1095Y1582D02*
X1153Y1582D01*
X1094Y1581D02*
X1154Y1581D01*
X1093Y1580D02*
X1155Y1580D01*
X1093Y1579D02*
X1156Y1579D01*
X1092Y1578D02*
X1156Y1578D01*
X1091Y1577D02*
X1157Y1577D01*
X1091Y1576D02*
X1158Y1576D01*
X1090Y1575D02*
X1158Y1575D01*
X1089Y1574D02*
X1159Y1574D01*
X1089Y1573D02*
X1159Y1573D01*
X1088Y1572D02*
X1160Y1572D01*
X1088Y1571D02*
X1160Y1571D01*
X1087Y1570D02*
X1161Y1570D01*
X1087Y1569D02*
X1161Y1569D01*
X1087Y1568D02*
X1161Y1568D01*
X1086Y1567D02*
X1162Y1567D01*
X1086Y1566D02*
X1162Y1566D01*
X1086Y1565D02*
X1162Y1565D01*
X1086Y1564D02*
X1162Y1564D01*
X1085Y1563D02*
X1163Y1563D01*
X1085Y1562D02*
X1163Y1562D01*
X1085Y1561D02*
X1163Y1561D01*
X1085Y1560D02*
X1163Y1560D01*
X1085Y1559D02*
X1163Y1559D01*
X1085Y1558D02*
X1163Y1558D01*
X1085Y1557D02*
X1163Y1557D01*
X1085Y1556D02*
X1164Y1556D01*
X1085Y1555D02*
X1164Y1555D01*
X1085Y1554D02*
X1163Y1554D01*
X1085Y1553D02*
X1163Y1553D01*
X1085Y1552D02*
X1163Y1552D01*
X1085Y1551D02*
X1163Y1551D01*
X1085Y1550D02*
X1163Y1550D01*
X1085Y1549D02*
X1163Y1549D01*
X1085Y1548D02*
X1163Y1548D01*
X1085Y1547D02*
X1163Y1547D01*
X1086Y1546D02*
X1162Y1546D01*
X1086Y1545D02*
X1162Y1545D01*
X1086Y1544D02*
X1162Y1544D01*
X1087Y1543D02*
X1162Y1543D01*
X1087Y1542D02*
X1161Y1542D01*
X1087Y1541D02*
X1161Y1541D01*
X1088Y1540D02*
X1161Y1540D01*
X1088Y1539D02*
X1160Y1539D01*
X1088Y1538D02*
X1160Y1538D01*
X1089Y1537D02*
X1159Y1537D01*
X1090Y1536D02*
X1159Y1536D01*
X1090Y1535D02*
X1158Y1535D01*
X1091Y1534D02*
X1157Y1534D01*
X1091Y1533D02*
X1157Y1533D01*
X1092Y1532D02*
X1156Y1532D01*
X1093Y1531D02*
X1155Y1531D01*
X1094Y1530D02*
X1155Y1530D01*
X1094Y1529D02*
X1154Y1529D01*
X1095Y1528D02*
X1153Y1528D01*
X1096Y1527D02*
X1152Y1527D01*
X1097Y1526D02*
X1151Y1526D01*
X1098Y1525D02*
X1150Y1525D01*
X1100Y1524D02*
X1149Y1524D01*
X1101Y1523D02*
X1147Y1523D01*
X1102Y1522D02*
X1146Y1522D01*
X1104Y1521D02*
X1144Y1521D01*
X1106Y1520D02*
X1143Y1520D01*
X1108Y1519D02*
X1141Y1519D01*
X1110Y1518D02*
X1138Y1518D01*
X1113Y1517D02*
X1135Y1517D01*
X1117Y1516D02*
X1131Y1516D01*
D02*
G04 End of Mask0*
M02*