G04 MADE WITH FRITZING*
G04 WWW.FRITZING.ORG*
G04 DOUBLE SIDED*
G04 HOLES PLATED*
G04 CONTOUR ON CENTER OF CONTOUR VECTOR*
%ASAXBY*%
%FSLAX23Y23*%
%MOIN*%
%OFA0B0*%
%SFA1.0B1.0*%
%ADD10C,0.039370*%
%ADD11C,0.015748*%
%ADD12C,0.079370*%
%ADD13C,0.080000*%
%ADD14C,0.070000*%
%ADD15C,0.090551*%
%ADD16C,0.078000*%
%ADD17C,0.075000*%
%ADD18C,0.068000*%
%ADD19R,0.079370X0.079370*%
%ADD20R,0.119522X0.270594*%
%ADD21R,0.205594X0.066929*%
%ADD22R,0.051181X0.141823*%
%ADD23R,0.068000X0.068000*%
%ADD24C,0.016000*%
%ADD25C,0.024000*%
%ADD26R,0.001000X0.001000*%
%LNCOPPER0*%
G90*
G70*
G54D10*
X1800Y1062D03*
G54D11*
X1825Y1190D03*
G54D10*
X1655Y1106D03*
X1630Y981D03*
X1629Y862D03*
X1630Y756D03*
X1730Y706D03*
X1745Y502D03*
X1367Y372D03*
X1441Y372D03*
X1130Y481D03*
X1230Y481D03*
X1680Y482D03*
X1872Y853D03*
G54D11*
X1866Y1190D03*
G54D10*
X1533Y308D03*
X1533Y394D03*
G54D11*
X1865Y1282D03*
G54D10*
X1755Y981D03*
X1756Y864D03*
X1805Y531D03*
X1954Y356D03*
X1380Y1056D03*
X1380Y957D03*
X629Y406D03*
X1221Y399D03*
X904Y318D03*
X754Y431D03*
X1180Y856D03*
G54D12*
X980Y1456D03*
X1280Y1456D03*
X980Y1356D03*
X1280Y1356D03*
X980Y1256D03*
X1280Y1256D03*
X980Y1156D03*
X1280Y1156D03*
X980Y1056D03*
X1280Y1056D03*
X980Y956D03*
X1280Y956D03*
X980Y856D03*
X1280Y856D03*
X980Y756D03*
X1280Y756D03*
X980Y656D03*
X1280Y656D03*
X980Y556D03*
X1280Y556D03*
G54D13*
X2090Y1006D03*
X1980Y1006D03*
G54D14*
X1125Y1554D03*
X1125Y1754D03*
X1325Y1654D03*
X1125Y1554D03*
X1125Y1754D03*
X1325Y1654D03*
G54D15*
X1125Y1558D03*
X1326Y1653D03*
X1127Y1753D03*
G54D16*
X2080Y1506D03*
X1980Y1506D03*
X2080Y606D03*
X1980Y606D03*
G54D17*
X335Y629D03*
X79Y629D03*
X335Y806D03*
X79Y806D03*
X335Y1029D03*
X79Y1029D03*
X335Y1206D03*
X79Y1206D03*
G54D18*
X682Y1298D03*
X682Y1219D03*
X682Y1140D03*
X682Y1061D03*
X682Y982D03*
X682Y903D03*
X682Y824D03*
X682Y745D03*
X682Y666D03*
X682Y587D03*
X1552Y587D03*
X1552Y666D03*
X1552Y745D03*
X1552Y824D03*
X1552Y903D03*
X1552Y982D03*
X1552Y1061D03*
X1552Y1140D03*
X1552Y1219D03*
X1552Y1298D03*
G54D16*
X2080Y1656D03*
X1980Y1656D03*
X1880Y1656D03*
X1780Y1656D03*
X1680Y1656D03*
X1580Y1656D03*
X430Y2106D03*
X430Y2006D03*
X430Y1906D03*
X430Y1806D03*
G54D17*
X2130Y806D03*
X2030Y806D03*
X1930Y806D03*
G54D16*
X1980Y1356D03*
X2080Y1356D03*
X1980Y1156D03*
X2080Y1156D03*
G54D10*
X679Y1857D03*
G54D11*
X1864Y1356D03*
G54D10*
X905Y1107D03*
G54D19*
X980Y1456D03*
G54D20*
X1650Y143D03*
G54D21*
X1724Y206D03*
G54D20*
X246Y149D03*
X1808Y145D03*
X1494Y143D03*
X1338Y146D03*
X1182Y147D03*
X1026Y143D03*
X870Y146D03*
X715Y145D03*
X559Y146D03*
X401Y145D03*
G54D22*
X1490Y157D03*
X406Y157D03*
X1962Y146D03*
X1015Y154D03*
X1185Y154D03*
X1662Y154D03*
X1336Y154D03*
X555Y154D03*
X1806Y154D03*
X864Y154D03*
X706Y154D03*
X224Y166D03*
G54D20*
X1962Y142D03*
G54D23*
X682Y1298D03*
G54D24*
X1825Y1089D02*
X1825Y1180D01*
D02*
X1809Y1072D02*
X1825Y1089D01*
D02*
X1629Y995D02*
X1629Y1082D01*
D02*
X1629Y1082D02*
X1645Y1097D01*
D02*
X1629Y770D02*
X1629Y849D01*
D02*
X1729Y532D02*
X1729Y693D01*
D02*
X1739Y514D02*
X1729Y532D01*
D02*
X1428Y372D02*
X1380Y372D01*
G54D25*
D02*
X1148Y481D02*
X1211Y481D01*
D02*
X1680Y907D02*
X1577Y904D01*
D02*
X1680Y501D02*
X1680Y907D01*
G54D24*
D02*
X1872Y866D02*
X1866Y1180D01*
D02*
X1533Y380D02*
X1533Y322D01*
D02*
X1754Y1256D02*
X1754Y995D01*
D02*
X1780Y1281D02*
X1754Y1256D01*
D02*
X1856Y1282D02*
X1780Y1281D01*
D02*
X1780Y732D02*
X1780Y556D01*
D02*
X1780Y556D02*
X1795Y541D01*
D02*
X1756Y850D02*
X1755Y757D01*
D02*
X1755Y757D02*
X1780Y732D01*
G54D25*
D02*
X1962Y141D02*
X1962Y146D01*
D02*
X1962Y141D02*
X1962Y146D01*
D02*
X1962Y141D02*
X1962Y146D01*
D02*
X1962Y141D02*
X1962Y146D01*
G54D24*
D02*
X880Y1082D02*
X880Y331D01*
D02*
X880Y331D02*
X892Y325D01*
D02*
X896Y1098D02*
X880Y1082D01*
D02*
X1005Y856D02*
X1167Y856D01*
G54D25*
D02*
X1930Y982D02*
X1952Y993D01*
D02*
X1930Y835D02*
X1930Y982D01*
D02*
X2180Y1756D02*
X2180Y957D01*
D02*
X2180Y957D02*
X2130Y907D01*
D02*
X2130Y1806D02*
X2180Y1756D01*
D02*
X2130Y907D02*
X2080Y907D01*
D02*
X1380Y1806D02*
X2130Y1806D01*
D02*
X2080Y907D02*
X2030Y856D01*
D02*
X1143Y1572D02*
X1380Y1806D01*
D02*
X2030Y856D02*
X2030Y835D01*
G54D24*
D02*
X429Y482D02*
X754Y482D01*
D02*
X406Y157D02*
X404Y207D01*
D02*
X804Y1356D02*
X954Y1356D01*
D02*
X779Y1331D02*
X804Y1356D01*
D02*
X779Y506D02*
X779Y1331D01*
D02*
X1029Y1356D02*
X1005Y1356D01*
D02*
X1080Y1307D02*
X1029Y1356D01*
D02*
X1480Y1356D02*
X1429Y1307D01*
D02*
X1429Y1307D02*
X1080Y1307D01*
D02*
X1854Y1356D02*
X1480Y1356D01*
D02*
X554Y382D02*
X554Y219D01*
D02*
X579Y407D02*
X554Y382D01*
D02*
X616Y407D02*
X579Y407D01*
D02*
X1280Y456D02*
X1231Y409D01*
D02*
X1280Y531D02*
X1280Y456D01*
D02*
X704Y382D02*
X706Y219D01*
D02*
X745Y422D02*
X704Y382D01*
G54D25*
D02*
X246Y149D02*
X244Y151D01*
D02*
X255Y232D02*
X230Y206D01*
D02*
X280Y806D02*
X255Y781D01*
D02*
X230Y206D02*
X224Y166D01*
D02*
X255Y781D02*
X255Y232D01*
D02*
X307Y806D02*
X280Y806D01*
D02*
X1905Y1506D02*
X1905Y1056D01*
D02*
X1949Y1506D02*
X1905Y1506D01*
D02*
X1905Y1056D02*
X1954Y1024D01*
G54D24*
D02*
X1030Y356D02*
X1020Y219D01*
D02*
X1080Y407D02*
X1030Y356D01*
D02*
X1080Y706D02*
X1080Y407D01*
D02*
X1129Y757D02*
X1080Y706D01*
D02*
X1254Y757D02*
X1129Y757D01*
D02*
X1180Y306D02*
X1183Y219D01*
D02*
X1329Y456D02*
X1180Y306D01*
D02*
X1329Y956D02*
X1329Y456D01*
D02*
X1305Y956D02*
X1329Y956D01*
D02*
X1329Y1107D02*
X1370Y1066D01*
D02*
X1329Y154D02*
X1336Y154D01*
D02*
X1380Y456D02*
X1329Y406D01*
D02*
X1329Y406D02*
X1329Y154D01*
D02*
X1080Y1106D02*
X1329Y1107D01*
D02*
X1380Y944D02*
X1380Y456D01*
D02*
X1030Y1156D02*
X1080Y1106D01*
D02*
X1005Y1156D02*
X1030Y1156D01*
D02*
X1480Y256D02*
X1483Y223D01*
D02*
X1480Y406D02*
X1480Y256D01*
D02*
X1380Y1007D02*
X1429Y956D01*
D02*
X1030Y956D02*
X1080Y1006D01*
D02*
X1429Y956D02*
X1429Y456D01*
D02*
X1429Y456D02*
X1480Y406D01*
D02*
X1080Y1006D02*
X1380Y1007D01*
D02*
X1005Y956D02*
X1030Y956D01*
D02*
X1679Y206D02*
X1662Y154D01*
D02*
X1654Y232D02*
X1629Y206D01*
D02*
X1429Y1156D02*
X1480Y1107D01*
D02*
X1629Y206D02*
X1679Y206D01*
D02*
X1654Y356D02*
X1654Y232D01*
D02*
X1480Y1107D02*
X1479Y507D01*
D02*
X1479Y507D02*
X1654Y356D01*
D02*
X1305Y1156D02*
X1429Y1156D01*
G54D25*
D02*
X1808Y145D02*
X1806Y154D01*
D02*
X1654Y207D02*
X1780Y206D01*
D02*
X1679Y206D02*
X1654Y207D01*
D02*
X1780Y206D02*
X1786Y194D01*
D02*
X1679Y157D02*
X1679Y206D01*
D02*
X1662Y154D02*
X1679Y157D01*
G54D24*
D02*
X405Y457D02*
X429Y482D01*
D02*
X404Y207D02*
X405Y457D01*
D02*
X754Y482D02*
X779Y506D01*
D02*
X405Y1032D02*
X358Y1030D01*
D02*
X455Y982D02*
X405Y1032D01*
D02*
X663Y982D02*
X455Y982D01*
D02*
X732Y1296D02*
X702Y1297D01*
D02*
X745Y1275D02*
X732Y1296D01*
D02*
X728Y826D02*
X746Y845D01*
D02*
X746Y845D02*
X745Y1275D01*
D02*
X702Y825D02*
X728Y826D01*
G54D25*
D02*
X582Y589D02*
X657Y588D01*
D02*
X405Y806D02*
X582Y589D01*
D02*
X364Y806D02*
X405Y806D01*
D02*
X280Y806D02*
X307Y806D01*
D02*
X280Y1207D02*
X255Y1182D01*
D02*
X255Y1182D02*
X255Y831D01*
D02*
X255Y831D02*
X280Y806D01*
D02*
X307Y1207D02*
X280Y1207D01*
D02*
X405Y1207D02*
X364Y1207D01*
D02*
X430Y1232D02*
X405Y1207D01*
D02*
X430Y1776D02*
X430Y1232D01*
D02*
X460Y1906D02*
X629Y1907D01*
D02*
X629Y1907D02*
X666Y1870D01*
D02*
X1572Y1667D02*
X1562Y1681D01*
D02*
X1587Y1656D02*
X1587Y1657D01*
D02*
X1587Y1657D02*
X1572Y1667D01*
D02*
X1351Y1654D02*
X1587Y1656D01*
D02*
X1579Y1531D02*
X1579Y1626D01*
D02*
X1604Y1506D02*
X1579Y1531D01*
D02*
X1949Y1506D02*
X1604Y1506D01*
D02*
X1905Y781D02*
X1909Y786D01*
D02*
X1905Y406D02*
X1905Y781D01*
D02*
X1941Y370D02*
X1905Y406D01*
D02*
X1954Y157D02*
X1954Y337D01*
D02*
X1962Y146D02*
X1954Y157D01*
D02*
X1930Y806D02*
X1954Y791D01*
D02*
X1805Y831D02*
X1829Y806D01*
D02*
X1805Y882D02*
X1805Y831D01*
D02*
X1780Y906D02*
X1805Y882D01*
D02*
X1829Y806D02*
X1930Y806D01*
D02*
X1679Y906D02*
X1780Y906D01*
D02*
X1577Y904D02*
X1679Y906D01*
D02*
X1380Y1381D02*
X1380Y1656D01*
D02*
X1380Y1656D02*
X1351Y1655D01*
D02*
X1355Y1356D02*
X1380Y1381D01*
D02*
X1310Y1356D02*
X1355Y1356D01*
G54D26*
X1124Y1790D02*
X1124Y1790D01*
X1117Y1789D02*
X1131Y1789D01*
X1113Y1788D02*
X1135Y1788D01*
X1111Y1787D02*
X1137Y1787D01*
X1109Y1786D02*
X1139Y1786D01*
X1107Y1785D02*
X1141Y1785D01*
X1105Y1784D02*
X1143Y1784D01*
X1104Y1783D02*
X1144Y1783D01*
X1102Y1782D02*
X1146Y1782D01*
X1101Y1781D02*
X1147Y1781D01*
X1100Y1780D02*
X1148Y1780D01*
X1099Y1779D02*
X1149Y1779D01*
X1098Y1778D02*
X1150Y1778D01*
X1097Y1777D02*
X1151Y1777D01*
X1097Y1776D02*
X1151Y1776D01*
X1096Y1775D02*
X1152Y1775D01*
X1095Y1774D02*
X1153Y1774D01*
X1095Y1773D02*
X1153Y1773D01*
X1094Y1772D02*
X1154Y1772D01*
X1094Y1771D02*
X1155Y1771D01*
X1093Y1770D02*
X1123Y1770D01*
X1125Y1770D02*
X1155Y1770D01*
X1093Y1769D02*
X1118Y1769D01*
X1131Y1769D02*
X1155Y1769D01*
X1092Y1768D02*
X1116Y1768D01*
X1132Y1768D02*
X1156Y1768D01*
X1092Y1767D02*
X1115Y1767D01*
X1134Y1767D02*
X1156Y1767D01*
X1092Y1766D02*
X1113Y1766D01*
X1135Y1766D02*
X1157Y1766D01*
X1091Y1765D02*
X1112Y1765D01*
X1136Y1765D02*
X1157Y1765D01*
X1091Y1764D02*
X1112Y1764D01*
X1137Y1764D02*
X1157Y1764D01*
X1091Y1763D02*
X1111Y1763D01*
X1137Y1763D02*
X1157Y1763D01*
X1090Y1762D02*
X1110Y1762D01*
X1138Y1762D02*
X1158Y1762D01*
X1090Y1761D02*
X1110Y1761D01*
X1139Y1761D02*
X1158Y1761D01*
X1090Y1760D02*
X1109Y1760D01*
X1139Y1760D02*
X1158Y1760D01*
X1090Y1759D02*
X1109Y1759D01*
X1139Y1759D02*
X1158Y1759D01*
X1090Y1758D02*
X1109Y1758D01*
X1139Y1758D02*
X1158Y1758D01*
X1090Y1757D02*
X1109Y1757D01*
X1139Y1757D02*
X1158Y1757D01*
X1090Y1756D02*
X1109Y1756D01*
X1139Y1756D02*
X1159Y1756D01*
X1090Y1755D02*
X1109Y1755D01*
X1140Y1755D02*
X1159Y1755D01*
X1090Y1754D02*
X1109Y1754D01*
X1139Y1754D02*
X1158Y1754D01*
X1090Y1753D02*
X1109Y1753D01*
X1139Y1753D02*
X1158Y1753D01*
X1090Y1752D02*
X1109Y1752D01*
X1139Y1752D02*
X1158Y1752D01*
X1090Y1751D02*
X1109Y1751D01*
X1139Y1751D02*
X1158Y1751D01*
X1090Y1750D02*
X1109Y1750D01*
X1139Y1750D02*
X1158Y1750D01*
X1090Y1749D02*
X1110Y1749D01*
X1138Y1749D02*
X1158Y1749D01*
X1090Y1748D02*
X1110Y1748D01*
X1138Y1748D02*
X1158Y1748D01*
X1091Y1747D02*
X1111Y1747D01*
X1137Y1747D02*
X1157Y1747D01*
X1091Y1746D02*
X1112Y1746D01*
X1137Y1746D02*
X1157Y1746D01*
X1091Y1745D02*
X1112Y1745D01*
X1136Y1745D02*
X1157Y1745D01*
X1092Y1744D02*
X1113Y1744D01*
X1135Y1744D02*
X1157Y1744D01*
X1092Y1743D02*
X1115Y1743D01*
X1134Y1743D02*
X1156Y1743D01*
X1092Y1742D02*
X1116Y1742D01*
X1132Y1742D02*
X1156Y1742D01*
X1093Y1741D02*
X1118Y1741D01*
X1130Y1741D02*
X1155Y1741D01*
X1093Y1740D02*
X1155Y1740D01*
X1094Y1739D02*
X1154Y1739D01*
X1094Y1738D02*
X1154Y1738D01*
X1095Y1737D02*
X1153Y1737D01*
X1095Y1736D02*
X1153Y1736D01*
X1096Y1735D02*
X1152Y1735D01*
X1097Y1734D02*
X1151Y1734D01*
X1097Y1733D02*
X1151Y1733D01*
X1098Y1732D02*
X1150Y1732D01*
X1099Y1731D02*
X1149Y1731D01*
X1100Y1730D02*
X1148Y1730D01*
X1101Y1729D02*
X1147Y1729D01*
X1102Y1728D02*
X1146Y1728D01*
X1104Y1727D02*
X1144Y1727D01*
X1105Y1726D02*
X1143Y1726D01*
X1107Y1725D02*
X1141Y1725D01*
X1109Y1724D02*
X1139Y1724D01*
X1111Y1723D02*
X1137Y1723D01*
X1114Y1722D02*
X1134Y1722D01*
X1117Y1721D02*
X1131Y1721D01*
X1323Y1690D02*
X1325Y1690D01*
X1317Y1689D02*
X1331Y1689D01*
X1313Y1688D02*
X1335Y1688D01*
X1311Y1687D02*
X1337Y1687D01*
X1309Y1686D02*
X1339Y1686D01*
X1307Y1685D02*
X1341Y1685D01*
X1305Y1684D02*
X1343Y1684D01*
X1304Y1683D02*
X1344Y1683D01*
X1302Y1682D02*
X1346Y1682D01*
X1301Y1681D02*
X1347Y1681D01*
X1300Y1680D02*
X1348Y1680D01*
X1299Y1679D02*
X1349Y1679D01*
X1298Y1678D02*
X1350Y1678D01*
X1297Y1677D02*
X1351Y1677D01*
X1297Y1676D02*
X1351Y1676D01*
X1296Y1675D02*
X1352Y1675D01*
X1295Y1674D02*
X1353Y1674D01*
X1295Y1673D02*
X1353Y1673D01*
X1294Y1672D02*
X1354Y1672D01*
X1294Y1671D02*
X1354Y1671D01*
X1293Y1670D02*
X1322Y1670D01*
X1326Y1670D02*
X1355Y1670D01*
X1293Y1669D02*
X1318Y1669D01*
X1331Y1669D02*
X1355Y1669D01*
X1292Y1668D02*
X1316Y1668D01*
X1332Y1668D02*
X1356Y1668D01*
X1292Y1667D02*
X1314Y1667D01*
X1334Y1667D02*
X1356Y1667D01*
X1291Y1666D02*
X1313Y1666D01*
X1335Y1666D02*
X1357Y1666D01*
X1291Y1665D02*
X1312Y1665D01*
X1336Y1665D02*
X1357Y1665D01*
X1291Y1664D02*
X1311Y1664D01*
X1337Y1664D02*
X1357Y1664D01*
X1291Y1663D02*
X1311Y1663D01*
X1337Y1663D02*
X1357Y1663D01*
X1290Y1662D02*
X1310Y1662D01*
X1338Y1662D02*
X1358Y1662D01*
X1290Y1661D02*
X1310Y1661D01*
X1338Y1661D02*
X1358Y1661D01*
X1290Y1660D02*
X1309Y1660D01*
X1339Y1660D02*
X1358Y1660D01*
X1290Y1659D02*
X1309Y1659D01*
X1339Y1659D02*
X1358Y1659D01*
X1290Y1658D02*
X1309Y1658D01*
X1339Y1658D02*
X1358Y1658D01*
X1290Y1657D02*
X1309Y1657D01*
X1339Y1657D02*
X1358Y1657D01*
X1290Y1656D02*
X1309Y1656D01*
X1339Y1656D02*
X1358Y1656D01*
X1290Y1655D02*
X1309Y1655D01*
X1340Y1655D02*
X1359Y1655D01*
X1290Y1654D02*
X1309Y1654D01*
X1339Y1654D02*
X1358Y1654D01*
X1290Y1653D02*
X1309Y1653D01*
X1339Y1653D02*
X1358Y1653D01*
X1290Y1652D02*
X1309Y1652D01*
X1339Y1652D02*
X1358Y1652D01*
X1290Y1651D02*
X1309Y1651D01*
X1339Y1651D02*
X1358Y1651D01*
X1290Y1650D02*
X1309Y1650D01*
X1339Y1650D02*
X1358Y1650D01*
X1290Y1649D02*
X1310Y1649D01*
X1338Y1649D02*
X1358Y1649D01*
X1290Y1648D02*
X1310Y1648D01*
X1338Y1648D02*
X1358Y1648D01*
X1291Y1647D02*
X1311Y1647D01*
X1337Y1647D02*
X1357Y1647D01*
X1291Y1646D02*
X1312Y1646D01*
X1336Y1646D02*
X1357Y1646D01*
X1291Y1645D02*
X1312Y1645D01*
X1336Y1645D02*
X1357Y1645D01*
X1292Y1644D02*
X1313Y1644D01*
X1335Y1644D02*
X1357Y1644D01*
X1292Y1643D02*
X1315Y1643D01*
X1333Y1643D02*
X1356Y1643D01*
X1292Y1642D02*
X1316Y1642D01*
X1332Y1642D02*
X1356Y1642D01*
X1293Y1641D02*
X1318Y1641D01*
X1330Y1641D02*
X1355Y1641D01*
X1293Y1640D02*
X1355Y1640D01*
X1294Y1639D02*
X1354Y1639D01*
X1294Y1638D02*
X1354Y1638D01*
X1295Y1637D02*
X1353Y1637D01*
X1295Y1636D02*
X1353Y1636D01*
X1296Y1635D02*
X1352Y1635D01*
X1297Y1634D02*
X1351Y1634D01*
X1297Y1633D02*
X1351Y1633D01*
X1298Y1632D02*
X1350Y1632D01*
X1299Y1631D02*
X1349Y1631D01*
X1300Y1630D02*
X1348Y1630D01*
X1301Y1629D02*
X1347Y1629D01*
X1302Y1628D02*
X1346Y1628D01*
X1304Y1627D02*
X1344Y1627D01*
X1305Y1626D02*
X1343Y1626D01*
X1307Y1625D02*
X1341Y1625D01*
X1309Y1624D02*
X1339Y1624D01*
X1311Y1623D02*
X1337Y1623D01*
X1314Y1622D02*
X1334Y1622D01*
X1317Y1621D02*
X1331Y1621D01*
X1123Y1590D02*
X1125Y1590D01*
X1116Y1589D02*
X1132Y1589D01*
X1113Y1588D02*
X1135Y1588D01*
X1111Y1587D02*
X1138Y1587D01*
X1109Y1586D02*
X1140Y1586D01*
X1107Y1585D02*
X1141Y1585D01*
X1105Y1584D02*
X1143Y1584D01*
X1104Y1583D02*
X1145Y1583D01*
X1102Y1582D02*
X1146Y1582D01*
X1101Y1581D02*
X1147Y1581D01*
X1100Y1580D02*
X1148Y1580D01*
X1099Y1579D02*
X1149Y1579D01*
X1098Y1578D02*
X1150Y1578D01*
X1097Y1577D02*
X1151Y1577D01*
X1097Y1576D02*
X1152Y1576D01*
X1096Y1575D02*
X1152Y1575D01*
X1095Y1574D02*
X1153Y1574D01*
X1095Y1573D02*
X1153Y1573D01*
X1094Y1572D02*
X1154Y1572D01*
X1094Y1571D02*
X1155Y1571D01*
X1093Y1570D02*
X1122Y1570D01*
X1126Y1570D02*
X1155Y1570D01*
X1093Y1569D02*
X1117Y1569D01*
X1131Y1569D02*
X1155Y1569D01*
X1092Y1568D02*
X1116Y1568D01*
X1132Y1568D02*
X1156Y1568D01*
X1092Y1567D02*
X1114Y1567D01*
X1134Y1567D02*
X1156Y1567D01*
X1092Y1566D02*
X1113Y1566D01*
X1135Y1566D02*
X1157Y1566D01*
X1091Y1565D02*
X1112Y1565D01*
X1136Y1565D02*
X1157Y1565D01*
X1091Y1564D02*
X1111Y1564D01*
X1137Y1564D02*
X1157Y1564D01*
X1091Y1563D02*
X1111Y1563D01*
X1137Y1563D02*
X1158Y1563D01*
X1090Y1562D02*
X1110Y1562D01*
X1138Y1562D02*
X1158Y1562D01*
X1090Y1561D02*
X1110Y1561D01*
X1139Y1561D02*
X1158Y1561D01*
X1090Y1560D02*
X1109Y1560D01*
X1139Y1560D02*
X1158Y1560D01*
X1090Y1559D02*
X1109Y1559D01*
X1139Y1559D02*
X1158Y1559D01*
X1090Y1558D02*
X1109Y1558D01*
X1139Y1558D02*
X1158Y1558D01*
X1090Y1557D02*
X1109Y1557D01*
X1139Y1557D02*
X1158Y1557D01*
X1090Y1556D02*
X1109Y1556D01*
X1139Y1556D02*
X1159Y1556D01*
X1090Y1555D02*
X1109Y1555D01*
X1140Y1555D02*
X1159Y1555D01*
X1090Y1554D02*
X1109Y1554D01*
X1139Y1554D02*
X1158Y1554D01*
X1090Y1553D02*
X1109Y1553D01*
X1139Y1553D02*
X1158Y1553D01*
X1090Y1552D02*
X1109Y1552D01*
X1139Y1552D02*
X1158Y1552D01*
X1090Y1551D02*
X1109Y1551D01*
X1139Y1551D02*
X1158Y1551D01*
X1090Y1550D02*
X1109Y1550D01*
X1139Y1550D02*
X1158Y1550D01*
X1090Y1549D02*
X1110Y1549D01*
X1138Y1549D02*
X1158Y1549D01*
X1090Y1548D02*
X1110Y1548D01*
X1138Y1548D02*
X1158Y1548D01*
X1091Y1547D02*
X1111Y1547D01*
X1137Y1547D02*
X1157Y1547D01*
X1091Y1546D02*
X1112Y1546D01*
X1136Y1546D02*
X1157Y1546D01*
X1091Y1545D02*
X1113Y1545D01*
X1136Y1545D02*
X1157Y1545D01*
X1092Y1544D02*
X1114Y1544D01*
X1135Y1544D02*
X1157Y1544D01*
X1092Y1543D02*
X1115Y1543D01*
X1133Y1543D02*
X1156Y1543D01*
X1092Y1542D02*
X1116Y1542D01*
X1132Y1542D02*
X1156Y1542D01*
X1093Y1541D02*
X1118Y1541D01*
X1130Y1541D02*
X1155Y1541D01*
X1093Y1540D02*
X1155Y1540D01*
X1094Y1539D02*
X1154Y1539D01*
X1094Y1538D02*
X1154Y1538D01*
X1095Y1537D02*
X1153Y1537D01*
X1095Y1536D02*
X1153Y1536D01*
X1096Y1535D02*
X1152Y1535D01*
X1097Y1534D02*
X1151Y1534D01*
X1098Y1533D02*
X1151Y1533D01*
X1098Y1532D02*
X1150Y1532D01*
X1099Y1531D02*
X1149Y1531D01*
X1100Y1530D02*
X1148Y1530D01*
X1101Y1529D02*
X1147Y1529D01*
X1103Y1528D02*
X1146Y1528D01*
X1104Y1527D02*
X1144Y1527D01*
X1105Y1526D02*
X1143Y1526D01*
X1107Y1525D02*
X1141Y1525D01*
X1109Y1524D02*
X1139Y1524D01*
X1111Y1523D02*
X1137Y1523D01*
X1114Y1522D02*
X1134Y1522D01*
X1117Y1521D02*
X1131Y1521D01*
D02*
G04 End of Copper0*
M02*