; NON-PLATED HOLES START AT T1
; THROUGH (PLATED) HOLES START AT T100
M48
INCH
T100C0.015748
T101C0.038000
T102C0.035000
T103C0.007874
T104C0.028000
T105C0.030000
T106C0.039370
T107C0.040000
T108C0.059055
%
T100
X015330Y003080
X011295Y004814
X009043Y003182
X016285Y008619
X017450Y005015
X013796Y010562
X016545Y011064
X012213Y003994
X018045Y005314
X016801Y004820
X012295Y004814
X017556Y008638
X017295Y007064
X006789Y018565
X006294Y004064
X016295Y009814
X009051Y011070
X014413Y003721
X015330Y003935
X013668Y003721
X013799Y009570
X007544Y004314
X016295Y007564
X017545Y009814
X017998Y010620
X011803Y008557
X019540Y003562
X018722Y008530
T101
X019795Y013564
X020795Y016564
X019795Y006064
X020795Y011564
X015795Y016564
X019795Y011564
X004295Y019064
X004295Y021064
X020795Y013564
X004295Y018064
X019795Y016564
X017795Y016564
X020795Y006064
X020795Y015064
X004295Y020064
X016795Y016564
X018795Y016564
X019795Y015064
T102
X000794Y010292
X003354Y008064
X003354Y006292
X021295Y008064
X000794Y012064
X020295Y008064
X003354Y010292
X000794Y008064
X019295Y008064
X003354Y012064
X000794Y006292
T103
X018253Y011898
X018636Y013564
X018663Y011897
X018650Y012824
T104
X006821Y007451
X015521Y008241
X015521Y012981
X015521Y006661
X006821Y009031
X015521Y005871
X015521Y009031
X006821Y008241
X006821Y009821
X015521Y012191
X006821Y006661
X006821Y010611
X015521Y010611
X015521Y007451
X006821Y012191
X015521Y009821
X006821Y005871
X006821Y012981
X006821Y011401
X015521Y011401
T105
X011248Y017540
X011248Y015540
X013248Y016540
T106
X012795Y010564
X012795Y008564
X009795Y014564
X009795Y011564
X009795Y006564
X009795Y013564
X012795Y005564
X009795Y007564
X009795Y012564
X009795Y005564
X012795Y011564
X009795Y009564
X012795Y009564
X012795Y007564
X009795Y008564
X012795Y006564
X012795Y013564
X012795Y012564
X012795Y014564
X009795Y010564
T107
X019795Y010064
X020895Y010064
T108
X013256Y016526
X011265Y017527
X011245Y015582
T00
M30
